<svg width="1194" height="797" viewBox="0 0 1194 797" fill="none" xmlns="http://www.w3.org/2000/svg">
<path d="M236.039 701.122C236.039 663.5 355.5 629 372.5 629L468 574C468 574 616.5 618.873 616.5 665.5C616.5 702.059 539.369 697.04 506.06 693.168C522.312 696.941 545.827 707.664 545.039 738.122C543.839 784.522 419.539 793.122 357.539 791.622C392.372 788.456 462.239 774.722 463.039 745.122C464.039 708.122 236.039 738.745 236.039 701.122Z" fill="#D9D9D9"/>
<path d="M372.5 629C355.5 629 236.039 663.5 236.039 701.122C236.039 738.745 464.039 708.122 463.039 745.122C462.239 774.722 392.372 788.456 357.539 791.622C419.539 793.122 543.839 784.522 545.039 738.122C546.239 691.722 491.039 691.122 491.039 691.122C491.039 691.122 616.5 712.127 616.5 665.5C616.5 618.873 468 574 468 574L372.5 629Z" stroke="black" stroke-width="10" stroke-linejoin="round"/>
<rect x="1047" y="644" width="1039" height="500" rx="9" transform="rotate(180 1047 644)" fill="white" stroke="black" stroke-width="15"/>
<path d="M83.056 263L82.992 227.8H87.92L87.472 252.76C87.4293 253.699 87.408 254.723 87.408 255.832C87.408 256.899 87.3867 257.795 87.344 258.52C87.5573 257.795 87.8347 256.899 88.176 255.832C88.5173 254.723 88.8373 253.699 89.136 252.76L97.072 227.8H102.704L102.64 252.76C102.64 253.699 102.64 254.723 102.64 255.832C102.683 256.899 102.683 257.795 102.64 258.52C102.853 257.795 103.131 256.899 103.472 255.832C103.813 254.723 104.133 253.699 104.432 252.76L112.048 227.8H116.912L105.456 263H99.12L99.184 238.68C99.184 237.485 99.184 236.291 99.184 235.096C99.184 233.901 99.184 232.963 99.184 232.28C99.0133 232.963 98.736 233.901 98.352 235.096C97.968 236.291 97.584 237.485 97.2 238.68L89.392 263H83.056ZM132.631 263.64C129.858 263.64 127.532 263.107 125.655 262.04C123.82 260.973 122.519 259.437 121.751 257.432C120.983 255.384 120.812 252.973 121.239 250.2L122.711 240.6C123.18 237.784 124.119 235.373 125.527 233.368C126.935 231.363 128.748 229.827 130.967 228.76C133.186 227.693 135.682 227.16 138.455 227.16C141.271 227.16 143.596 227.693 145.431 228.76C147.266 229.827 148.567 231.363 149.335 233.368C150.146 235.373 150.338 237.763 149.911 240.536L148.375 250.2C147.948 252.973 147.01 255.384 145.559 257.432C144.151 259.437 142.338 260.973 140.119 262.04C137.943 263.107 135.447 263.64 132.631 263.64ZM133.463 258.52C135.98 258.52 138.028 257.816 139.607 256.408C141.186 255 142.188 252.931 142.615 250.2L144.087 240.6C144.556 237.869 144.215 235.8 143.063 234.392C141.954 232.984 140.14 232.28 137.623 232.28C135.148 232.28 133.122 232.984 131.543 234.392C129.964 235.8 128.94 237.869 128.471 240.6L126.999 250.2C126.572 252.931 126.914 255 128.023 256.408C129.175 257.816 130.988 258.52 133.463 258.52ZM159.038 263L164.606 227.8H170.238L169.15 234.52H170.494L167.998 238.68C168.595 234.883 169.875 232.024 171.838 230.104C173.801 228.141 176.403 227.16 179.646 227.16C183.358 227.16 186.11 228.333 187.902 230.68C189.737 232.984 190.355 236.12 189.758 240.088L189.374 242.2H183.614L183.87 240.6C184.339 237.827 184.019 235.715 182.91 234.264C181.801 232.771 180.009 232.024 177.534 232.024C175.102 232.024 173.075 232.771 171.454 234.264C169.833 235.757 168.787 237.869 168.318 240.6L164.798 263H159.038ZM196.389 263L203.813 216.28H209.573L205.413 242.328H211.429L223.973 227.8H230.693L216.229 244.76L225.317 263H218.725L210.981 247.32H204.645L202.149 263H196.389ZM245.772 263.64C242.273 263.64 239.671 262.467 237.964 260.12C236.257 257.773 235.724 254.595 236.364 250.584L237.964 240.28C238.391 237.549 239.223 235.224 240.46 233.304C241.74 231.341 243.319 229.827 245.196 228.76C247.116 227.693 249.249 227.16 251.596 227.16C254.497 227.16 256.695 227.949 258.188 229.528C259.681 231.107 260.215 233.219 259.788 235.864L258.828 234.52H260.108L261.26 226.52L262.924 216.28H268.684L261.26 263H255.5L256.588 256.28H255.436L256.78 254.936C256.353 257.624 255.137 259.757 253.132 261.336C251.127 262.872 248.673 263.64 245.772 263.64ZM248.524 258.648C250.913 258.648 252.897 257.901 254.476 256.408C256.097 254.915 257.121 252.845 257.548 250.2L259.02 240.6C259.489 237.955 259.148 235.885 257.996 234.392C256.844 232.899 255.073 232.152 252.684 232.152C250.252 232.152 248.247 232.877 246.668 234.328C245.132 235.779 244.129 237.869 243.66 240.6L242.188 250.2C241.761 252.931 242.103 255.021 243.212 256.472C244.321 257.923 246.092 258.648 248.524 258.648ZM284.147 263.64C280.648 263.64 278.046 262.467 276.339 260.12C274.632 257.773 274.099 254.595 274.739 250.584L276.339 240.28C276.766 237.549 277.598 235.224 278.835 233.304C280.115 231.341 281.694 229.827 283.571 228.76C285.491 227.693 287.624 227.16 289.971 227.16C292.872 227.16 295.07 227.949 296.563 229.528C298.056 231.107 298.59 233.219 298.163 235.864L297.203 234.52H298.483L299.443 227.8H305.203L299.635 263H293.875L294.963 256.28H293.811L295.155 254.936C294.728 257.624 293.512 259.757 291.507 261.336C289.502 262.872 287.048 263.64 284.147 263.64ZM286.899 258.648C289.288 258.648 291.272 257.901 292.851 256.408C294.472 254.915 295.496 252.845 295.923 250.2L297.395 240.6C297.864 237.955 297.523 235.885 296.371 234.392C295.219 232.899 293.448 232.152 291.059 232.152C288.627 232.152 286.622 232.877 285.043 234.328C283.507 235.779 282.504 237.869 282.035 240.6L280.563 250.2C280.136 252.931 280.478 255.021 281.587 256.472C282.696 257.923 284.467 258.648 286.899 258.648ZM314.01 274.52L314.842 269.272H326.042C327.834 269.272 329.221 268.867 330.202 268.056C331.183 267.245 331.802 265.987 332.058 264.28L332.826 259.48L333.914 253.08H332.698L334.106 251.736C333.679 254.467 332.506 256.6 330.586 258.136C328.666 259.672 326.234 260.44 323.29 260.44C319.791 260.44 317.146 259.352 315.354 257.176C313.605 255 313.029 252.035 313.626 248.28L316.89 227.8H322.65L319.514 247.64C319.087 250.115 319.429 252.056 320.538 253.464C321.69 254.872 323.418 255.576 325.722 255.576C328.111 255.576 330.117 254.829 331.738 253.336C333.402 251.843 334.447 249.731 334.874 247L337.882 227.8H343.642L337.818 264.28C337.349 267.437 335.983 269.933 333.722 271.768C331.461 273.603 328.602 274.52 325.146 274.52H314.01Z" fill="#868686"/>
<path d="M78 274.52H346.65V277.72H78V274.52Z" fill="#868686"/>
<path d="M260.136 466.64C256.083 466.64 252.84 465.445 250.408 463.056C247.976 460.624 246.76 457.339 246.76 453.2V430.8H252.52V453.2C252.52 455.845 253.203 457.915 254.568 459.408C255.933 460.859 257.789 461.584 260.136 461.584C262.525 461.584 264.403 460.859 265.768 459.408C267.176 457.915 267.88 455.845 267.88 453.2V430.8H273.64V453.2C273.64 457.339 272.403 460.624 269.928 463.056C267.453 465.445 264.189 466.64 260.136 466.64ZM300.623 466.64C297.722 466.64 295.396 465.872 293.647 464.336C291.898 462.757 291.023 460.624 291.023 457.936L292.175 459.28H291.023V466H285.263V419.28H291.023V429.52L290.895 437.52H292.175L291.023 438.864C291.023 436.219 291.898 434.107 293.647 432.528C295.439 430.949 297.764 430.16 300.623 430.16C304.164 430.16 307.002 431.333 309.135 433.68C311.268 436.027 312.335 439.227 312.335 443.28V453.584C312.335 457.595 311.268 460.773 309.135 463.12C307.002 465.467 304.164 466.64 300.623 466.64ZM298.703 461.648C301.135 461.648 303.055 460.923 304.463 459.472C305.871 458.021 306.575 455.931 306.575 453.2V443.6C306.575 440.869 305.871 438.779 304.463 437.328C303.055 435.877 301.135 435.152 298.703 435.152C296.356 435.152 294.479 435.899 293.071 437.392C291.706 438.885 291.023 440.955 291.023 443.6V453.2C291.023 455.845 291.706 457.915 293.071 459.408C294.479 460.901 296.356 461.648 298.703 461.648ZM337.206 466.64C334.39 466.64 331.915 466.107 329.782 465.04C327.691 463.973 326.07 462.437 324.918 460.432C323.766 458.384 323.19 455.973 323.19 453.2V443.6C323.19 440.784 323.766 438.373 324.918 436.368C326.07 434.363 327.691 432.827 329.782 431.76C331.915 430.693 334.39 430.16 337.206 430.16C341.259 430.16 344.523 431.248 346.998 433.424C349.473 435.6 350.774 438.565 350.902 442.32H345.142C345.014 440.059 344.246 438.331 342.838 437.136C341.473 435.899 339.595 435.28 337.206 435.28C334.689 435.28 332.683 436.005 331.19 437.456C329.697 438.864 328.95 440.891 328.95 443.536V453.2C328.95 455.845 329.697 457.893 331.19 459.344C332.683 460.795 334.689 461.52 337.206 461.52C339.595 461.52 341.473 460.901 342.838 459.664C344.246 458.427 345.014 456.699 345.142 454.48H350.902C350.774 458.235 349.473 461.2 346.998 463.376C344.523 465.552 341.259 466.64 337.206 466.64Z" fill="#868686"/>
<path d="M241 477.52H356.15V480.72H241V477.52Z" fill="#868686"/>
<path d="M145 318L168.125 389.171H242.959L182.417 433.158L205.542 504.329L145 460.342L84.4581 504.329L107.583 433.158L47.0412 389.171H121.875L145 318Z" fill="#D9D9D9"/>
<rect x="78.1328" y="560" width="68.4008" height="42" fill="#D9D9D9"/>
<rect x="586.377" y="560" width="68.4008" height="42" fill="#D9D9D9"/>
<rect x="166.448" y="560" width="69.2667" height="42" fill="#D9D9D9"/>
<rect x="740" y="560" width="69.2667" height="42" fill="#D9D9D9"/>
<rect x="255.628" y="560" width="68.4008" height="42" fill="#D9D9D9"/>
<rect x="343.943" y="560" width="69.2667" height="42" fill="#D9D9D9"/>
<rect x="828.81" y="560" width="69.2667" height="42" fill="#D9D9D9"/>
<rect x="498.062" y="560" width="68.4008" height="42" fill="#D9D9D9"/>
<rect x="917.991" y="560" width="68.4008" height="42" fill="#D9D9D9"/>
<path d="M676.716 195.5C676.716 234.408 669.565 261.997 658.799 279.594C648.192 296.928 634.207 304.5 619.278 304.5C604.751 304.5 590.655 295.869 579.822 277.485C568.952 259.035 561.841 231.345 561.841 195.5C561.841 159.655 568.952 131.965 579.822 113.515C590.655 95.1309 604.751 86.5 619.278 86.5C634.207 86.5 648.192 94.0719 658.799 111.406C669.565 129.003 676.716 156.592 676.716 195.5Z" fill="white" stroke="black" stroke-width="15"/>
<path d="M673.826 229C673.826 274.638 657.157 296 636.595 296C616.033 296 599.364 271.239 599.364 229C599.364 186.761 616.033 162 636.595 162C657.157 162 673.826 183.362 673.826 229Z" fill="black"/>
<path d="M799.12 36.5C825.239 37.8507 858.718 77.6667 874.015 97.5C874.015 51.5 816.418 10.6667 785.825 0C781.785 9 775.916 35.3 799.12 36.5Z" fill="black"/>
<path d="M609.321 36.5C583.203 37.8507 549.723 77.6667 534.427 97.5C534.427 51.5 592.023 10.6667 622.616 0C626.657 9 632.526 35.3 609.321 36.5Z" fill="black"/>
<path d="M704.761 303C680.229 324.167 631.339 377.8 677.055 387C734.2 398.5 776.625 394.5 807.795 378C832.731 364.8 789.035 322.5 764.071 303" stroke="black" stroke-width="15" stroke-linecap="round"/>
<path d="M859.407 195.5C859.407 234.408 852.256 261.997 841.49 279.594C830.883 296.928 816.898 304.5 801.969 304.5C787.442 304.5 773.345 295.869 762.513 277.485C751.643 259.035 744.532 231.345 744.532 195.5C744.532 159.655 751.643 131.965 762.513 113.515C773.345 95.1309 787.442 86.5 801.969 86.5C816.898 86.5 830.883 94.0719 841.49 111.406C852.256 129.003 859.407 156.592 859.407 195.5Z" fill="white" stroke="black" stroke-width="15"/>
<path d="M827.944 229C827.944 274.638 811.275 296 790.713 296C770.151 296 753.482 271.239 753.482 229C753.482 186.761 770.151 162 790.713 162C811.275 162 827.944 183.362 827.944 229Z" fill="black"/>
<path d="M679.887 458C684.793 471 700.234 496.4 722.745 494C745.257 491.6 765.027 469 772.098 458H679.887Z" fill="black"/>
<path d="M642.656 424.5C653.479 426.5 676.077 436 679.887 458M679.887 458C683.696 480 656.653 491.167 642.656 494M679.887 458C685.947 448.333 703.264 429.5 724.044 431.5C744.824 433.5 764.738 450 772.098 458M679.887 458C684.793 471 700.234 496.4 722.745 494C745.257 491.6 765.027 469 772.098 458M679.887 458H772.098M772.098 458C776.138 444.5 787.769 418.2 801.969 421M772.098 458C774.407 471.833 782.748 499.4 797.64 499" stroke="black" stroke-width="15"/>
<path d="M447.216 318.96V310.512C443.035 310.171 439.728 308.848 437.296 306.544C434.907 304.197 433.691 301.168 433.648 297.456H441.648C441.648 299.035 442.139 300.357 443.12 301.424C444.101 302.448 445.467 303.131 447.216 303.472V289.904L446.064 289.584C442.395 288.645 439.557 286.96 437.552 284.528C435.589 282.096 434.608 279.152 434.608 275.696C434.608 272.069 435.739 269.104 438 266.8C440.261 264.453 443.333 263.109 447.216 262.768V254.32H451.184V262.704C455.109 263.045 458.224 264.368 460.528 266.672C462.832 268.933 464.005 271.877 464.048 275.504H456.048C456.048 273.968 455.621 272.709 454.768 271.728C453.957 270.747 452.763 270.107 451.184 269.808V282.736L453.296 283.312C457.008 284.251 459.845 285.936 461.808 288.368C463.771 290.757 464.752 293.723 464.752 297.264C464.752 300.976 463.515 304.048 461.04 306.48C458.608 308.869 455.323 310.235 451.184 310.576V318.96H447.216ZM451.184 303.536C452.933 303.28 454.299 302.64 455.28 301.616C456.261 300.549 456.752 299.205 456.752 297.584C456.752 295.707 456.091 294.149 454.768 292.912C453.445 291.675 451.632 290.992 449.328 290.864L451.184 288.432V303.536ZM447.216 285.168V269.808C445.723 270.107 444.571 270.725 443.76 271.664C442.992 272.56 442.608 273.755 442.608 275.248C442.608 277.168 443.248 278.768 444.528 280.048C445.851 281.285 447.685 281.947 450.032 282.032L447.216 285.168ZM505.879 311.28C499.82 311.28 494.53 310.171 490.007 307.952C485.57 305.733 482.114 302.619 479.639 298.608C477.164 294.597 475.927 289.861 475.927 284.4H492.055C492.055 288.581 493.25 291.867 495.639 294.256C498.114 296.56 501.57 297.712 506.007 297.712C510.444 297.712 513.858 296.517 516.247 294.128C518.636 291.739 519.831 288.496 519.831 284.4V277.104C519.831 272.923 518.636 269.68 516.247 267.376C513.858 264.987 510.444 263.792 506.007 263.792H495.511V249.328L516.119 230.256H480.151V216.56H532.375V231.024L506.007 255.216V250.096C515.223 250.096 522.519 252.528 527.895 257.392C533.271 262.256 535.959 268.827 535.959 277.104V284.4C535.959 289.861 534.722 294.597 532.247 298.608C529.772 302.619 526.274 305.733 521.751 307.952C517.228 310.171 511.938 311.28 505.879 311.28Z" fill="black"/>
<path d="M880.489 310V239.6H893.545V249.072H896.233L894.057 251.376C894.057 247.451 895.167 244.293 897.385 241.904C899.604 239.515 902.463 238.32 905.961 238.32C909.716 238.32 912.617 239.856 914.665 242.928C916.799 246 917.865 250.139 917.865 255.344L915.049 249.072H919.401L917.737 251.376C917.737 247.451 918.847 244.293 921.065 241.904C923.284 239.515 926.228 238.32 929.897 238.32C934.249 238.32 937.706 239.941 940.266 243.184C942.826 246.427 944.105 250.821 944.105 256.368V310H930.025V257.008C930.025 254.704 929.513 252.912 928.489 251.632C927.465 250.267 925.972 249.584 924.009 249.584C922.132 249.584 920.639 250.224 919.529 251.504C918.505 252.784 917.993 254.619 917.993 257.008V310H906.473V257.008C906.473 254.619 905.961 252.784 904.937 251.504C903.913 250.224 902.42 249.584 900.457 249.584C898.495 249.584 897.001 250.224 895.977 251.504C895.039 252.784 894.569 254.619 894.569 257.008V310H880.489Z" fill="black"/>
<path d="M989.602 358.749C1005.51 360.177 1043.44 362.848 1045.12 358.46C1053.23 337.287 1016.7 308.312 1057.83 304.326C1078.32 302.341 1086.45 329.785 1086.82 350.283C1086.87 352.997 1090.23 354.652 1092.34 352.951C1118.7 331.76 1160.75 311.521 1169.24 330.677C1180.96 357.089 1147.98 369.353 1125.08 379.274C1149.31 371.255 1185.46 374.822 1185.59 406.759C1185.75 445.464 1129.83 433.547 1109.96 425.342C1129.57 434.698 1164.06 442.124 1147.31 463.37C1126.16 490.19 1106.35 467.153 1094.04 450.994C1092.25 448.642 1088.73 450.008 1089 452.952C1090.69 471.085 1092.23 493.576 1077.99 489.221C1044.45 478.963 1064.16 427.528 1053.29 419.576C1045.01 413.52 1005.51 409.945 982.621 408.878C980.837 408.795 979.521 407.192 979.783 405.425L986.348 361.303C986.583 359.724 988.012 358.606 989.602 358.749Z" fill="white"/>
<path d="M1045.12 358.46C1043.44 362.848 1005.51 360.177 989.602 358.749C988.012 358.606 986.583 359.724 986.348 361.303L979.783 405.425C979.521 407.192 980.837 408.795 982.621 408.878C1005.51 409.945 1045.01 413.52 1053.29 419.576C1064.16 427.528 1044.45 478.963 1077.99 489.221C1092.23 493.576 1090.69 471.085 1089 452.952C1088.73 450.008 1092.25 448.642 1094.04 450.994C1106.35 467.153 1126.16 490.19 1147.31 463.37C1164.06 442.124 1129.57 434.698 1109.96 425.342C1129.83 433.547 1185.75 445.464 1185.59 406.759C1185.43 368.054 1132.38 371.017 1111.73 385.774C1130.81 374.171 1183.6 363.054 1169.24 330.677C1160.75 311.521 1118.7 331.76 1092.34 352.951C1090.23 354.652 1086.87 352.997 1086.82 350.283C1086.45 329.785 1078.32 302.341 1057.83 304.326C1016.7 308.312 1053.23 337.287 1045.12 358.46Z" stroke="black" stroke-width="15"/>
<path d="M502.161 368.749C486.257 370.177 448.323 372.848 446.642 368.46C438.533 347.287 475.067 318.312 433.931 314.326C413.442 312.341 405.317 339.785 404.945 360.283C404.896 362.997 401.538 364.652 399.422 362.951C373.063 341.76 331.017 321.521 322.521 340.677C310.808 367.089 343.779 379.353 366.682 389.274C342.448 381.255 306.303 384.822 306.172 416.759C306.014 455.464 361.933 443.547 381.806 435.342C362.196 444.698 327.701 452.124 344.455 473.37C365.603 500.19 385.418 477.153 397.722 460.994C399.513 458.642 403.038 460.008 402.764 462.952C401.076 481.085 399.536 503.576 413.774 499.221C447.312 488.963 427.606 437.528 438.477 429.576C446.755 423.52 486.255 419.945 509.142 418.878C510.926 418.795 512.243 417.192 511.98 415.425L505.415 371.303C505.18 369.724 503.751 368.606 502.161 368.749Z" fill="white"/>
<path d="M446.642 368.46C448.323 372.848 486.257 370.177 502.161 368.749C503.751 368.606 505.18 369.724 505.415 371.303L511.98 415.425C512.243 417.192 510.926 418.795 509.142 418.878C486.255 419.945 446.755 423.52 438.477 429.576C427.606 437.528 447.312 488.963 413.774 499.221C399.536 503.576 401.076 481.085 402.764 462.952C403.038 460.008 399.513 458.642 397.722 460.994C385.418 477.153 365.603 500.19 344.455 473.37C327.701 452.124 362.196 444.698 381.806 435.342C361.933 443.547 306.014 455.464 306.172 416.759C306.331 378.054 359.388 381.017 380.029 395.774C360.952 384.171 308.162 373.054 322.521 340.677C331.017 321.521 373.063 341.76 399.422 362.951C401.538 364.652 404.896 362.997 404.945 360.283C405.317 339.785 413.442 312.341 433.931 314.326C475.067 318.312 438.533 347.287 446.642 368.46Z" stroke="black" stroke-width="15"/>
</svg>
