<svg width="304" height="283" viewBox="0 0 304 283" fill="none" xmlns="http://www.w3.org/2000/svg">
<path d="M296.163 118.328C296.163 141.239 287.175 160.726 271.766 176.16C270.285 177.644 268.745 179.09 267.148 180.498C260.804 186.09 253.56 191.082 245.56 195.44C243.09 196.786 240.549 198.07 237.939 199.293C227.909 203.995 216.875 207.789 205.077 210.616C192.37 213.66 178.777 215.583 164.594 216.312C160.308 216.532 155.967 216.643 151.582 216.643C139.62 216.643 127.998 215.817 116.882 214.205C102.026 212.051 88.0746 208.493 75.4245 203.631C60.1594 197.763 46.79 189.995 36.0155 180.498C17.7987 164.44 7 143.441 7 118.328C7 56.8432 71.7314 7 151.582 7C231.432 7 296.163 56.8432 296.163 118.328Z" fill="#CDDEF1"/>
<path d="M296.163 118.328C296.163 141.239 287.175 160.726 271.766 176.16C270.285 177.644 268.745 179.09 267.148 180.498C260.804 186.09 253.56 191.082 245.56 195.44C243.09 196.786 240.549 198.07 237.939 199.293C227.909 203.995 216.875 207.789 205.077 210.616C192.37 213.66 178.777 215.583 164.594 216.312C160.308 216.532 155.967 216.643 151.582 216.643C139.62 216.643 127.998 215.817 116.882 214.205C102.026 212.051 88.0746 208.493 75.4245 203.631C60.1594 197.763 46.79 189.995 36.0155 180.498C17.7987 164.44 7 143.441 7 118.328V203.631C11.5177 211.662 20.1482 222.552 33.0247 233.444C33.9974 234.266 34.9943 235.089 36.0155 235.911C45.7895 243.774 57.7881 251.525 72.0617 258.086C85.0929 264.076 100.02 269.073 116.882 272.256C127.655 274.29 139.219 275.583 151.582 275.922C157.038 276.071 162.339 276.004 167.486 275.741C183.421 274.926 197.871 272.233 210.86 268.271C226.44 263.52 239.92 256.945 251.343 249.603C262.421 242.482 271.564 234.639 278.813 227.038C286.984 218.469 292.749 210.207 296.163 203.631V118.328Z" fill="#8BABCE"/>
<path d="M296.163 118.328C296.163 56.8432 231.432 7 151.582 7C71.7314 7 7 56.8432 7 118.328M296.163 118.328V203.631C292.749 210.207 286.984 218.469 278.813 227.038M296.163 118.328C296.163 141.239 287.175 160.726 271.766 176.16M7 118.328V203.631C11.5177 211.662 20.1482 222.552 33.0247 233.444C33.9974 234.266 34.9943 235.089 36.0155 235.911M7 118.328C7 143.441 17.7987 164.44 36.0155 180.498M36.0155 180.498C46.79 189.995 60.1594 197.763 75.4245 203.631M36.0155 180.498V235.911M75.4245 203.631L72.0617 258.086M75.4245 203.631C88.0746 208.493 102.026 212.051 116.882 214.205M72.0617 258.086C85.0929 264.076 100.02 269.073 116.882 272.256M72.0617 258.086C57.7881 251.525 45.7895 243.774 36.0155 235.911M116.882 214.205C127.998 215.817 139.62 216.643 151.582 216.643C155.967 216.643 160.308 216.532 164.594 216.312M116.882 214.205V272.256M116.882 272.256C127.655 274.29 139.219 275.583 151.582 275.922C157.038 276.071 162.339 276.004 167.486 275.741M164.594 216.312L167.486 275.741M164.594 216.312C178.777 215.583 192.37 213.66 205.077 210.616M167.486 275.741C183.421 274.926 197.871 272.233 210.86 268.271M205.077 210.616L210.86 268.271M205.077 210.616C216.875 207.789 227.909 203.995 237.939 199.293C240.549 198.07 243.09 196.786 245.56 195.44M210.86 268.271C226.44 263.52 239.92 256.945 251.343 249.603M251.343 249.603C262.421 242.482 271.564 234.639 278.813 227.038M251.343 249.603L245.56 195.44M278.813 227.038L271.766 176.16M271.766 176.16C270.285 177.644 268.745 179.09 267.148 180.498C260.804 186.09 253.56 191.082 245.56 195.44" stroke="#285385" stroke-width="14"/>
<path d="M254.464 115.436C254.464 133.432 244.142 148.418 225.73 159.25C207.208 170.146 181.057 176.39 151.582 176.39C122.106 176.39 95.9551 170.146 77.4327 159.25C59.0216 148.418 48.6996 133.432 48.6996 115.436C48.6996 97.199 59.291 79.9621 77.8874 66.9936C96.4599 54.0417 122.493 45.808 151.582 45.808C180.67 45.808 206.703 54.0417 225.276 66.9936C243.872 79.9621 254.464 97.199 254.464 115.436Z" fill="white" stroke="#285385" stroke-width="14"/>
</svg>
