<svg width="936" height="139" viewBox="0 0 936 139" fill="none" xmlns="http://www.w3.org/2000/svg">
<path d="M7 132C7 132 15.6016 117 30.374 117C45.1463 117 48.4959 132 53.748 132C59 132 61.2276 117 76.374 117C91.5203 117 89.5 132 99 132C108.5 132 107.602 117 122.374 117C137.146 117 140.496 132 145.748 132C151 132 153.228 117 168.374 117C183.52 117 181.5 132 191 132C200.5 132 199.602 117 214.374 117C229.146 117 232.496 132 237.748 132C243 132 245.228 117 260.374 117C275.52 117 272.5 132 283 132C293.5 132 291.602 117 306.374 117C321.146 117 324.496 132 329.748 132C335 132 337.228 117 352.374 117C367.52 117 366.5 132 375 132C383.5 132 383.602 117 398.374 117C413.146 117 416.496 132 421.748 132C427 132 429.228 117 444.374 117C459.52 117 456.5 132 467 132C477.5 132 475.602 117 490.374 117C505.146 117 508.496 132 513.748 132C519 132 521.228 117 536.374 117C551.52 117 549 132 559 132C569 132 567.602 117 582.374 117C597.146 117 600.496 132 605.748 132C611 132 613.228 117 628.374 117C643.52 117 651 132 651 132" stroke="#F38B00" stroke-width="14" stroke-linecap="round"/>
<path d="M12.112 46.3679H25.296V99.9999H12.112V46.3679ZM11.344 27.1679C11.344 25.1199 12.1547 23.4133 13.776 22.0479C15.3973 20.6826 17.1467 19.9999 19.024 19.9999C20.9867 19.9999 22.736 20.6826 24.272 22.0479C25.808 23.4133 26.576 25.1199 26.576 27.1679C26.576 29.2159 25.808 30.9226 24.272 32.2879C22.736 33.5679 20.9867 34.2079 19.024 34.2079C17.1467 34.2079 15.3973 33.5679 13.776 32.2879C12.1547 30.9226 11.344 29.2159 11.344 27.1679Z" fill="#005CB9"/>
<path d="M41.522 22.8159H54.706V46.4959H69.042V56.8639H54.706V99.9999H41.522V56.8639H32.05V46.4959H41.522V22.8159Z" fill="#005CB9"/>
<path d="M96.205 101.28C91.1703 101.28 86.6477 100.128 82.637 97.8239C78.6263 95.4346 75.469 92.0639 73.165 87.7119C70.861 83.3599 69.709 78.2826 69.709 72.4799C69.709 66.5066 70.9463 61.4293 73.421 57.2479C75.8957 52.9813 79.2237 49.7386 83.405 47.5199C87.6717 45.2159 92.4503 44.0639 97.741 44.0639C101.837 44.0639 105.72 44.9173 109.389 46.6239C113.144 48.2453 116.045 50.5493 118.093 53.5359L117.709 58.0159V0.543945H130.765V99.9999H117.581V87.3279L118.989 90.7839C116.344 93.7706 113.101 96.2879 109.261 98.3359C105.421 100.299 101.069 101.28 96.205 101.28ZM100.301 90.1439C103.288 90.1439 105.933 89.6319 108.237 88.6079C110.541 87.5839 112.504 86.1333 114.125 84.2559C115.746 82.2933 116.898 80.0319 117.581 77.4719V66.7199C116.984 64.3306 115.832 62.2399 114.125 60.4479C112.504 58.5706 110.498 57.1199 108.109 56.0959C105.72 55.0719 103.117 54.5599 100.301 54.5599C97.1437 54.5599 94.2423 55.3279 91.597 56.8639C89.037 58.3146 86.9463 60.3626 85.325 63.0079C83.789 65.6533 83.021 68.7253 83.021 72.2239C83.021 75.5519 83.789 78.5813 85.325 81.3119C86.9463 84.0426 89.0797 86.2186 91.725 87.8399C94.3703 89.3759 97.229 90.1439 100.301 90.1439Z" fill="#005CB9"/>
<path d="M137.374 72.6079C137.374 67.2319 138.654 62.4106 141.214 58.1439C143.774 53.7919 147.315 50.3786 151.838 47.9039C156.361 45.4293 161.523 44.1919 167.326 44.1919C173.214 44.1919 178.377 45.4293 182.814 47.9039C187.251 50.3786 190.665 53.7919 193.054 58.1439C195.529 62.4106 196.766 67.2319 196.766 72.6079C196.766 77.9839 195.529 82.8479 193.054 87.1999C190.665 91.5519 187.251 95.0079 182.814 97.5679C178.377 100.043 173.171 101.28 167.198 101.28C161.481 101.28 156.361 100.128 151.838 97.8239C147.401 95.5199 143.859 92.2346 141.214 87.9679C138.654 83.6159 137.374 78.4959 137.374 72.6079ZM150.686 72.7359C150.686 76.0639 151.411 79.0933 152.862 81.8239C154.313 84.4693 156.275 86.6026 158.75 88.2239C161.225 89.7599 163.998 90.5279 167.07 90.5279C170.227 90.5279 173.043 89.7599 175.518 88.2239C177.993 86.6026 179.913 84.4693 181.278 81.8239C182.729 79.0933 183.454 76.0639 183.454 72.7359C183.454 69.4079 182.729 66.4213 181.278 63.7759C179.913 61.1306 177.993 58.9973 175.518 57.3759C173.043 55.7546 170.227 54.9439 167.07 54.9439C163.913 54.9439 161.097 55.7546 158.622 57.3759C156.147 58.9973 154.185 61.1733 152.734 63.9039C151.369 66.5493 150.686 69.4933 150.686 72.7359Z" fill="#005CB9"/>
<path d="M228.613 101.28C222.384 101.28 217.05 100.085 212.613 97.6959C208.176 95.2213 204.762 91.8506 202.373 87.5839C199.984 83.2319 198.789 78.2826 198.789 72.7359C198.789 67.4453 200.112 62.6666 202.757 58.3999C205.488 54.0479 209.114 50.5919 213.637 48.0319C218.245 45.4719 223.322 44.1919 228.869 44.1919C236.037 44.1919 241.968 46.2826 246.661 50.4639C251.44 54.6453 254.64 60.4906 256.261 67.9999L212.613 83.1039L209.541 75.424L244.485 62.8799L241.797 64.5439C240.773 61.8986 239.152 59.5946 236.933 57.6319C234.714 55.5839 231.685 54.5599 227.845 54.5599C224.773 54.5599 222 55.3279 219.525 56.8639C217.136 58.3146 215.216 60.3626 213.765 63.0079C212.4 65.5679 211.717 68.5973 211.717 72.0959C211.717 75.6799 212.442 78.8373 213.893 81.5679C215.429 84.2133 217.477 86.3039 220.037 87.8399C222.682 89.3759 225.626 90.1439 228.869 90.1439C231.173 90.1439 233.349 89.7173 235.397 88.8639C237.53 88.0106 239.536 86.9439 241.413 85.6639L247.429 95.3919C244.613 97.1839 241.541 98.6346 238.213 99.7439C234.97 100.768 231.77 101.28 228.613 101.28Z" fill="#005CB9"/>
<path d="M277.553 101.152C273.628 101.152 269.83 100.469 266.161 99.1039C262.492 97.6533 259.462 95.5626 257.073 92.8319L262.705 85.4079C265.009 87.5413 267.313 89.1626 269.617 90.2719C272.006 91.2959 274.268 91.8079 276.401 91.8079C278.108 91.8079 279.644 91.6373 281.009 91.2959C282.374 90.8693 283.484 90.1866 284.337 89.2479C285.19 88.3093 285.617 87.0719 285.617 85.5359C285.617 83.7439 285.02 82.3359 283.825 81.3119C282.63 80.2879 281.094 79.4346 279.217 78.7519C277.34 78.0693 275.334 77.4293 273.201 76.8319C268.678 75.3813 265.265 73.3333 262.961 70.6879C260.657 67.9573 259.505 64.7573 259.505 61.0879C259.505 58.2719 260.188 55.6266 261.553 53.1519C263.004 50.5919 265.18 48.5013 268.081 46.8799C270.982 45.2586 274.566 44.4479 278.833 44.4479C282.758 44.4479 286.214 44.9173 289.201 45.8559C292.188 46.7093 294.961 48.2026 297.521 50.3359L292.401 58.2719C290.865 56.7359 289.03 55.5839 286.897 54.8159C284.849 53.9626 282.972 53.4933 281.265 53.4079C279.729 53.4079 278.321 53.6639 277.041 54.1759C275.761 54.6026 274.737 55.2853 273.969 56.2239C273.201 57.0773 272.817 58.1013 272.817 59.2959C272.732 61.0026 273.286 62.4106 274.481 63.5199C275.761 64.5439 277.382 65.3973 279.345 66.0799C281.308 66.6773 283.228 67.3173 285.105 67.9999C287.75 68.7679 290.097 69.8346 292.145 71.1999C294.193 72.4799 295.814 74.0586 297.009 75.9359C298.204 77.8133 298.801 80.2026 298.801 83.1039C298.801 86.2613 298.033 89.2479 296.497 92.0639C294.961 94.7946 292.614 97.0133 289.457 98.7199C286.3 100.341 282.332 101.152 277.553 101.152Z" fill="#005CB9"/>
<path d="M317.878 46.3679L319.03 58.6559L318.518 56.9919C320.31 53.1519 323.083 50.0799 326.838 47.7759C330.593 45.3866 335.03 44.1919 340.15 44.1919C345.185 44.1919 349.323 45.6853 352.566 48.6719C355.894 51.6586 357.601 55.5413 357.686 60.3199V99.9999H344.502V64.9279C344.417 62.1973 343.606 59.9786 342.07 58.2719C340.534 56.4799 338.145 55.5413 334.902 55.4559C332.001 55.4559 329.355 56.3519 326.966 58.1439C324.577 59.8506 322.699 62.1973 321.334 65.1839C319.969 68.1706 319.286 71.6266 319.286 75.5519V99.9999H306.102V46.3679H317.878Z" fill="#005CB9"/>
<path d="M369.532 27.9359L362.876 24.7359C364.668 23.0293 366.076 20.6826 367.1 17.6959C368.209 14.6239 368.465 11.5946 367.868 8.60794L378.364 7.71194C378.876 10.1013 378.748 12.6186 377.98 15.2639C377.212 17.9093 376.103 20.3839 374.652 22.6879C373.201 24.9066 371.495 26.6559 369.532 27.9359Z" fill="#005CB9"/>
<path d="M388.927 22.8159H402.111V46.4959H416.447V56.8639H402.111V99.9999H388.927V56.8639H379.455V46.4959H388.927V22.8159Z" fill="#005CB9"/>
<path d="M456.922 46.3679L471.898 80.7999L469.338 80.9279L483.034 46.3679H495.962L471.386 103.2L454.234 66.7199L438.49 103.2L413.786 46.3679H426.714L442.586 82.4639L437.978 81.6959L449.498 55.0719L445.53 46.3679H456.922Z" fill="#005CB9"/>
<path d="M493.279 72.6079C493.279 67.2319 494.559 62.4106 497.119 58.1439C499.679 53.7919 503.22 50.3786 507.743 47.9039C512.266 45.4293 517.428 44.1919 523.231 44.1919C529.119 44.1919 534.282 45.4293 538.719 47.9039C543.156 50.3786 546.57 53.7919 548.959 58.1439C551.434 62.4106 552.671 67.2319 552.671 72.6079C552.671 77.9839 551.434 82.8479 548.959 87.1999C546.57 91.5519 543.156 95.0079 538.719 97.5679C534.282 100.043 529.076 101.28 523.103 101.28C517.386 101.28 512.266 100.128 507.743 97.8239C503.306 95.5199 499.764 92.2346 497.119 87.9679C494.559 83.6159 493.279 78.4959 493.279 72.6079ZM506.591 72.7359C506.591 76.0639 507.316 79.0933 508.767 81.8239C510.218 84.4693 512.18 86.6026 514.655 88.2239C517.13 89.7599 519.903 90.5279 522.975 90.5279C526.132 90.5279 528.948 89.7599 531.423 88.2239C533.898 86.6026 535.818 84.4693 537.183 81.8239C538.634 79.0933 539.359 76.0639 539.359 72.7359C539.359 69.4079 538.634 66.4213 537.183 63.7759C535.818 61.1306 533.898 58.9973 531.423 57.3759C528.948 55.7546 526.132 54.9439 522.975 54.9439C519.818 54.9439 517.002 55.7546 514.527 57.3759C512.052 58.9973 510.09 61.1733 508.639 63.9039C507.274 66.5493 506.591 69.4933 506.591 72.7359Z" fill="#005CB9"/>
<path d="M571.078 46.3679L572.358 61.7279L571.718 59.6799C573.169 56.4373 575.217 53.6639 577.862 51.3599C580.507 49.0559 583.238 47.3066 586.054 46.1119C588.955 44.8319 591.387 44.1919 593.35 44.1919L592.71 57.2479C588.614 56.9919 585.03 57.7599 581.958 59.5519C578.971 61.3439 576.625 63.7333 574.918 66.7199C573.211 69.7066 572.358 72.9066 572.358 76.3199V99.9999H559.302V46.3679H571.078Z" fill="#005CB9"/>
<path d="M599.342 99.9999V0.543945H612.526V99.9999H599.342ZM625.582 64.1599L650.158 99.9999H634.798L616.878 71.7119L625.582 64.1599ZM608.43 83.4879L607.15 70.8159L639.662 45.2159L647.726 52.2559L608.43 83.4879Z" fill="#005CB9"/>
<path d="M729.54 101.28C724.505 101.28 719.983 100.128 715.972 97.8239C711.961 95.4346 708.804 92.0639 706.5 87.7119C704.196 83.3599 703.044 78.2826 703.044 72.4799C703.044 66.5066 704.281 61.4293 706.756 57.2479C709.231 52.9813 712.559 49.7386 716.74 47.5199C721.007 45.2159 725.785 44.0639 731.076 44.0639C735.172 44.0639 739.055 44.9173 742.724 46.6239C746.479 48.2453 749.38 50.5493 751.428 53.5359L751.044 58.0159V0.543945H764.1V99.9999H750.916V87.3279L752.324 90.7839C749.679 93.7706 746.436 96.2879 742.596 98.3359C738.756 100.299 734.404 101.28 729.54 101.28ZM733.636 90.1439C736.623 90.1439 739.268 89.6319 741.572 88.6079C743.876 87.5839 745.839 86.1333 747.46 84.2559C749.081 82.2933 750.233 80.0319 750.916 77.4719V66.7199C750.319 64.3306 749.167 62.2399 747.46 60.4479C745.839 58.5706 743.833 57.1199 741.444 56.0959C739.055 55.0719 736.452 54.5599 733.636 54.5599C730.479 54.5599 727.577 55.3279 724.932 56.8639C722.372 58.3146 720.281 60.3626 718.66 63.0079C717.124 65.6533 716.356 68.7253 716.356 72.2239C716.356 75.5519 717.124 78.5813 718.66 81.3119C720.281 84.0426 722.415 86.2186 725.06 87.8399C727.705 89.3759 730.564 90.1439 733.636 90.1439Z" fill="#005CB9"/>
<path d="M818.197 101.28C813.162 101.28 808.597 100.256 804.501 98.2079C800.405 96.0746 797.162 92.9173 794.773 88.7359C792.384 84.5546 791.189 79.3919 791.189 73.2479C791.189 67.1893 792.426 61.9839 794.901 57.6319C797.461 53.2799 800.789 49.9519 804.885 47.6479C809.066 45.2586 813.589 44.0639 818.453 44.0639C823.573 44.0639 827.754 45.1733 830.997 47.3919C834.325 49.5253 836.928 52.0426 838.805 54.9439L837.909 56.9919L839.189 46.3679H851.349V99.9999H838.165V86.5599L839.573 89.7599C839.232 90.4426 838.506 91.4239 837.397 92.7039C836.288 93.8986 834.794 95.1786 832.917 96.5439C831.125 97.9093 828.992 99.0613 826.517 99.9999C824.128 100.853 821.354 101.28 818.197 101.28ZM821.781 90.5279C824.597 90.5279 827.114 90.0159 829.333 88.9919C831.552 87.9679 833.429 86.5173 834.965 84.6399C836.501 82.7626 837.568 80.5439 838.165 77.9839V66.8479C837.482 64.4586 836.33 62.4106 834.709 60.7039C833.088 58.9119 831.125 57.5039 828.821 56.4799C826.602 55.4559 824.128 54.9439 821.397 54.9439C818.325 54.9439 815.509 55.7119 812.949 57.2479C810.389 58.6986 808.341 60.7466 806.805 63.3919C805.269 66.0373 804.501 69.1093 804.501 72.6079C804.501 75.9359 805.269 78.9653 806.805 81.6959C808.426 84.4266 810.56 86.6026 813.205 88.2239C815.85 89.7599 818.709 90.5279 821.781 90.5279Z" fill="#005CB9"/>
<path d="M887.547 125.728L923.003 46.3679H935.035L900.475 125.728H887.547ZM901.115 100.384L875.131 46.3679H889.979L911.227 93.7279L901.115 100.384Z" fill="#005CB9"/>
</svg>
