<svg width="260" height="187" viewBox="0 0 260 187" fill="none" xmlns="http://www.w3.org/2000/svg">
<path d="M22.2427 81.8286L21.5922 81.7643C20.0033 81.6072 18.5752 82.7254 18.3402 84.3046L11.7754 128.427C11.5125 130.193 12.8287 131.796 14.613 131.879C37.5002 132.946 76.9998 136.522 85.2786 142.577C96.1491 150.529 102.461 164.242 136 174.5C143.505 176.796 147.71 167.917 154.5 167C163.062 165.843 166.153 169.51 169.5 167C175.5 162.5 177.202 160.994 179.489 157C182.42 151.882 181.066 146.765 180.125 142.43C179.672 140.341 181.677 138.916 183.688 139.637C197.579 144.616 188.062 135.336 194.5 122C200.283 110.019 189.851 113.222 180.581 104.581C179.877 103.925 179.563 102.909 179.9 102.007C186.831 83.504 252.002 112.604 252.001 83.5C252 62.5144 158.095 58.5729 124.781 76.5793C122.393 77.8702 119.06 76.0256 119.387 73.3305C122.166 50.4131 128.153 11.4992 107.5 13.5C84.7222 15.7067 102.327 48.8395 80.2527 53.6282C78.9346 53.9142 77.8626 54.9325 77.623 56.2598C74.1168 75.6843 67.35 72.7396 63.9997 81.4868C62.3493 85.796 36.8707 83.2756 22.2427 81.8286Z" fill="white"/>
<path d="M18.7595 81.4868C32.3532 82.7962 62.2085 86.1634 63.9997 81.4868C67.35 72.7396 74.1168 75.6843 77.623 56.2598C77.8626 54.9325 78.9346 53.9142 80.2527 53.6282C102.327 48.8395 84.7222 15.7067 107.5 13.5C128.153 11.4992 122.166 50.4131 119.387 73.3305C119.06 76.0256 122.393 77.8702 124.781 76.5793C158.095 58.5729 252 62.5144 252.001 83.5C252.002 112.604 186.831 83.504 179.9 102.007C179.563 102.909 179.877 103.925 180.581 104.581C189.851 113.222 200.283 110.019 194.5 122C188.062 135.336 197.579 144.616 183.688 139.637C181.677 138.916 179.672 140.342 180.125 142.43C181.066 146.765 182.42 151.882 179.489 157C177.202 160.994 175.5 162.5 169.5 167C166.153 169.51 163.062 165.843 154.5 167C147.71 167.917 143.505 176.796 136 174.5C102.461 164.242 96.1491 150.529 85.2786 142.577C76.5822 136.216 33.4364 132.592 11.2829 131.737" stroke="black" stroke-width="15" stroke-linecap="round"/>
</svg>
