<svg width="2212" height="1754" viewBox="0 0 2212 1754" fill="none" xmlns="http://www.w3.org/2000/svg">
<path d="M1074.5 977L1157.68 1233.01H1426.87L1209.09 1391.23L1292.27 1647.24L1074.5 1489.02L856.726 1647.24L939.908 1391.23L722.134 1233.01H991.318L1074.5 977Z" fill="#8BABCE"/>
<path d="M1144.5 1071L1221.17 1306.97H1469.29L1268.56 1452.81L1345.23 1688.78L1144.5 1542.94L943.771 1688.78L1020.44 1452.81L819.714 1306.97H1067.83L1144.5 1071Z" fill="#CDDEF1"/>
<path d="M1667.89 307.545L1682.02 676.776L2037.55 777.435L1690.76 904.974L1704.89 1274.2L1476.43 983.797L1129.63 1111.34L1335.23 804.315L1106.77 513.907L1462.3 614.566L1667.89 307.545Z" fill="#8BABCE"/>
<path d="M1725.19 457.872L1738.22 798.203L2065.92 890.983L1746.27 1008.54L1759.3 1348.87L1548.72 1081.19L1229.07 1198.75L1418.57 915.758L1207.99 648.081L1535.69 740.861L1725.19 457.872Z" fill="#CDDEF1"/>
<path d="M1035.92 551.692L870.992 863.904L1116.96 1117.24L769.057 1056.86L604.124 1369.07L554.044 1019.54L206.146 959.162L523.093 803.522L473.013 453.992L718.978 707.332L1035.92 551.692Z" fill="#8BABCE"/>
<path d="M1011.76 703.38L859.724 991.18L1086.46 1224.71L765.76 1169.05L613.723 1456.85L567.559 1134.65L246.862 1078.99L539.028 935.52L492.864 613.319L719.596 846.85L1011.76 703.38Z" fill="#CDDEF1"/>
<path d="M1060.5 0L1143.68 256.009H1412.87L1195.09 414.232L1278.27 670.241L1060.5 512.018L842.726 670.241L925.908 414.232L708.134 256.009H977.318L1060.5 0Z" fill="#8BABCE"/>
<path d="M1130.5 94L1207.17 329.971H1455.29L1254.56 475.809L1331.23 711.779L1130.5 565.941L929.771 711.779L1006.44 475.809L805.714 329.971H1053.83L1130.5 94Z" fill="#CDDEF1"/>
</svg>
