<svg width="755" height="667" viewBox="0 0 755 667" fill="none" xmlns="http://www.w3.org/2000/svg">
<path d="M83.5 9.50024C50.2032 5.13345 21.221 5.00264 13.7683 35.3522C13.5845 36.1009 13.5148 36.89 13.5441 37.6604L29.6967 463.014C29.8697 467.57 33.4222 471.277 37.9667 471.643L733.372 527.724C738.576 528.143 743.044 524.062 743.095 518.841L747.909 30.7407C747.959 25.6775 743.856 21.5661 738.793 21.5967C632.206 22.2406 113.021 13.3719 83.5 9.50024Z" fill="#285385" stroke="#285385" stroke-width="14"/>
<path d="M525.163 257.328C525.163 280.239 516.175 299.726 500.766 315.16C499.285 316.644 497.745 318.09 496.148 319.498C489.804 325.09 482.56 330.082 474.56 334.44C472.09 335.786 469.549 337.07 466.939 338.293C456.909 342.995 445.875 346.789 434.077 349.616C421.37 352.66 407.777 354.583 393.594 355.312C389.308 355.532 384.967 355.643 380.582 355.643C368.62 355.643 356.998 354.817 345.882 353.205C331.026 351.051 317.075 347.493 304.425 342.631C289.159 336.763 275.79 328.995 265.016 319.498C246.799 303.44 236 282.441 236 257.328C236 195.843 300.731 146 380.582 146C460.432 146 525.163 195.843 525.163 257.328Z" fill="#CDDEF1"/>
<path d="M525.163 257.328C525.163 280.239 516.175 299.726 500.766 315.16C499.285 316.644 497.745 318.09 496.148 319.498C489.804 325.09 482.56 330.082 474.56 334.44C472.09 335.786 469.549 337.07 466.939 338.293C456.909 342.995 445.875 346.789 434.077 349.616C421.37 352.66 407.777 354.583 393.594 355.312C389.308 355.532 384.967 355.643 380.582 355.643C368.62 355.643 356.998 354.817 345.882 353.205C331.026 351.051 317.075 347.493 304.425 342.631C289.159 336.763 275.79 328.995 265.016 319.498C246.799 303.44 236 282.441 236 257.328V342.631C240.518 350.662 249.148 361.552 262.025 372.444C262.997 373.266 263.994 374.089 265.016 374.911C274.789 382.774 286.788 390.525 301.062 397.086C314.093 403.076 329.02 408.073 345.882 411.256C356.655 413.29 368.219 414.583 380.582 414.922C386.038 415.071 391.339 415.004 396.486 414.741C412.421 413.926 426.871 411.233 439.86 407.271C455.44 402.52 468.92 395.945 480.343 388.603C491.421 381.482 500.564 373.639 507.813 366.038C515.984 357.469 521.749 349.207 525.163 342.631V257.328Z" fill="#8BABCE"/>
<path d="M525.163 257.328C525.163 195.843 460.432 146 380.582 146C300.731 146 236 195.843 236 257.328M525.163 257.328V342.631C521.749 349.207 515.984 357.469 507.813 366.038M525.163 257.328C525.163 280.239 516.175 299.726 500.766 315.16M236 257.328V342.631C240.518 350.662 249.148 361.552 262.025 372.444C262.997 373.266 263.994 374.089 265.016 374.911M236 257.328C236 282.441 246.799 303.44 265.016 319.498M265.016 319.498C275.79 328.995 289.159 336.763 304.425 342.631M265.016 319.498V374.911M304.425 342.631L301.062 397.086M304.425 342.631C317.075 347.493 331.026 351.051 345.882 353.205M301.062 397.086C314.093 403.076 329.02 408.073 345.882 411.256M301.062 397.086C286.788 390.525 274.789 382.774 265.016 374.911M345.882 353.205C356.998 354.817 368.62 355.643 380.582 355.643C384.967 355.643 389.308 355.532 393.594 355.312M345.882 353.205V411.256M345.882 411.256C356.655 413.29 368.219 414.583 380.582 414.922C386.038 415.071 391.339 415.004 396.486 414.741M393.594 355.312L396.486 414.741M393.594 355.312C407.777 354.583 421.37 352.66 434.077 349.616M396.486 414.741C412.421 413.926 426.871 411.233 439.86 407.271M434.077 349.616L439.86 407.271M434.077 349.616C445.875 346.789 456.909 342.995 466.939 338.293C469.549 337.07 472.09 335.786 474.56 334.44M439.86 407.271C455.44 402.52 468.92 395.945 480.343 388.603M480.343 388.603C491.421 381.482 500.564 373.639 507.813 366.038M480.343 388.603L474.56 334.44M507.813 366.038L500.766 315.16M500.766 315.16C499.285 316.644 497.745 318.09 496.148 319.498C489.804 325.09 482.56 330.082 474.56 334.44" stroke="#285385" stroke-width="14"/>
<path d="M483.464 254.436C483.464 272.431 473.142 287.418 454.73 298.25C436.208 309.146 410.057 315.389 380.582 315.389C351.106 315.389 324.955 309.146 306.433 298.25C288.022 287.418 277.7 272.431 277.7 254.436C277.7 236.199 288.291 218.962 306.887 205.993C325.46 193.042 351.493 184.808 380.582 184.808C409.67 184.808 435.703 193.042 454.276 205.993C472.872 218.962 483.464 236.199 483.464 254.436Z" fill="white" stroke="#285385" stroke-width="14"/>
<path fill-rule="evenodd" clip-rule="evenodd" d="M136.5 49.8361L587.575 124.767C591.873 125.481 595.042 129.17 595.099 133.526L601.844 643.716C601.923 649.65 596.336 654.035 590.591 652.548L151.5 538.935L136.5 49.8361Z" fill="#8BABCE"/>
<path d="M71.248 49.8361C70.4199 49.8361 69.5958 49.7218 68.799 49.4964L25.8927 37.3631C20.017 35.7015 14.2275 40.2489 14.4496 46.3509L30.8339 496.437C30.9383 499.305 32.4043 501.951 34.7803 503.561L84.7138 537.387C86.2037 538.396 87.9619 538.935 89.7614 538.935H151.5L136.5 49.8361H71.248Z" fill="#CDDEF1"/>
<path d="M137.647 42.9307L137.077 42.8361H136.5H71.248C71.064 42.8361 70.8809 42.8107 70.7038 42.7606L27.7975 30.6272C17.3519 27.6734 7.05934 35.7575 7.45424 46.6055L23.8385 496.692C24.0241 501.79 26.6303 506.495 30.8544 509.356L80.7879 543.182C83.4365 544.976 86.5622 545.935 89.7614 545.935H150.609L588.837 659.325C599.052 661.968 608.983 654.173 608.844 643.623L602.099 133.433C601.997 125.689 596.362 119.13 588.722 117.861L137.647 42.9307Z" stroke="#285385" stroke-width="14"/>
<path d="M301.112 196.893L308.687 469.287" stroke="#CDDEF1" stroke-width="32" stroke-linecap="round"/>
<path d="M344.105 201.992L351.679 474.386" stroke="#CDDEF1" stroke-width="32" stroke-linecap="round"/>
<path d="M234.101 418.25C282.195 428.526 375.22 445.273 403.17 425.246C431.119 405.219 430.561 373.033 399.524 355.62C368.487 338.208 234.22 340.434 238.657 292.138C243.093 243.841 301.669 229.138 410.227 239.111" stroke="#CDDEF1" stroke-width="41" stroke-linecap="round"/>
<path d="M301.112 196.893L308.687 469.287" stroke="white" stroke-width="15" stroke-linecap="round"/>
<path d="M344.105 201.992L351.679 474.386" stroke="white" stroke-width="15" stroke-linecap="round"/>
<path d="M234.101 418.25C282.196 428.526 371.051 449.527 399 429.5C426.949 409.473 430.037 379.912 399 362.5C367.963 345.088 240.5 342.5 240.5 291.5C240.5 240.5 301.669 229.138 410.227 239.111" stroke="white" stroke-width="16" stroke-linecap="round"/>
</svg>
